HIERARCHY
ROOT Hips
{
	OFFSET -339.306915 540.749023 89.171944
	CHANNELS 6 Xposition Yposition Zposition Zrotation Yrotation Xrotation
	JOINT Spine
	{
		OFFSET 0.000000 2.080078 8.814247
		CHANNELS 6 Xposition Yposition Zposition Zrotation Yrotation Xrotation
		JOINT Spine1
		{
			OFFSET 0.000000 0.000000 8.844139
			CHANNELS 6 Xposition Yposition Zposition Zrotation Yrotation Xrotation
			JOINT Spine2
			{
				OFFSET 0.000000 0.000000 11.682266
				CHANNELS 6 Xposition Yposition Zposition Zrotation Yrotation Xrotation
				JOINT Spine3
				{
					OFFSET 0.000000 0.000000 11.746696
					CHANNELS 6 Xposition Yposition Zposition Zrotation Yrotation Xrotation
					JOINT Neck
					{
						OFFSET 0.000000 0.000000 17.658264
						CHANNELS 6 Xposition Yposition Zposition Zrotation Yrotation Xrotation
						JOINT Neck1
						{
							OFFSET 0.000000 0.000000 5.101517
							CHANNELS 6 Xposition Yposition Zposition Zrotation Yrotation Xrotation
							JOINT Head
							{
								OFFSET 0.000000 0.000000 5.101517
								CHANNELS 6 Xposition Yposition Zposition Zrotation Yrotation Xrotation
								JOINT HeadEnd
								{
									OFFSET 0.000000 0.000000 11.655090
									CHANNELS 6 Xposition Yposition Zposition Zrotation Yrotation Xrotation
									End Site
									{
										OFFSET 0.000000 0.000000 0.100006
									}
								}
							}
						}
					}
					JOINT RightShoulder
					{
						OFFSET -2.625397 0.000000 11.175217
						CHANNELS 6 Xposition Yposition Zposition Zrotation Yrotation Xrotation
						JOINT RightArm
						{
							OFFSET 0.000000 0.000000 10.434708
							CHANNELS 6 Xposition Yposition Zposition Zrotation Yrotation Xrotation
							JOINT RightForeArm
							{
								OFFSET 0.000000 0.000000 29.628418
								CHANNELS 6 Xposition Yposition Zposition Zrotation Yrotation Xrotation
								JOINT RightHand
								{
									OFFSET 0.000000 0.000000 22.857605
									CHANNELS 6 Xposition Yposition Zposition Zrotation Yrotation Xrotation
									JOINT RightHandThumb1
									{
										OFFSET -2.867310 -2.944275 3.959564
										CHANNELS 6 Xposition Yposition Zposition Zrotation Yrotation Xrotation
										JOINT RightHandThumb2
										{
											OFFSET 0.000000 0.000000 3.350403
											CHANNELS 6 Xposition Yposition Zposition Zrotation Yrotation Xrotation
											JOINT RightHandThumb3
											{
												OFFSET 0.000000 0.000000 3.756516
												CHANNELS 6 Xposition Yposition Zposition Zrotation Yrotation Xrotation
												JOINT RightHandThumb4
												{
													OFFSET 0.000000 0.000000 3.147339
													CHANNELS 6 Xposition Yposition Zposition Zrotation Yrotation Xrotation
													End Site
													{
														OFFSET 0.000000 0.000000 0.100006
													}
												}
											}
										}
									}
									JOINT RightHandIndex1
									{
										OFFSET -0.086761 -2.345276 10.030899
										CHANNELS 6 Xposition Yposition Zposition Zrotation Yrotation Xrotation
										JOINT RightHandIndex2
										{
											OFFSET 0.000000 0.000000 4.061096
											CHANNELS 6 Xposition Yposition Zposition Zrotation Yrotation Xrotation
											JOINT RightHandIndex3
											{
												OFFSET 0.000000 0.000000 3.248871
												CHANNELS 6 Xposition Yposition Zposition Zrotation Yrotation Xrotation
												JOINT RightHandIndex4
												{
													OFFSET 0.000000 0.000000 2.639709
													CHANNELS 6 Xposition Yposition Zposition Zrotation Yrotation Xrotation
													End Site
													{
														OFFSET 0.000000 0.000000 0.100006
													}
												}
											}
										}
									}
									JOINT RightHandMiddle1
									{
										OFFSET 0.104095 -0.006775 9.502945
										CHANNELS 6 Xposition Yposition Zposition Zrotation Yrotation Xrotation
										JOINT RightHandMiddle2
										{
											OFFSET 0.000000 0.000000 4.568726
											CHANNELS 6 Xposition Yposition Zposition Zrotation Yrotation Xrotation
											JOINT RightHandMiddle3
											{
												OFFSET 0.000000 0.000000 3.654984
												CHANNELS 6 Xposition Yposition Zposition Zrotation Yrotation Xrotation
												JOINT RightHandMiddle4
												{
													OFFSET 0.000000 0.000000 2.741241
													CHANNELS 6 Xposition Yposition Zposition Zrotation Yrotation Xrotation
													End Site
													{
														OFFSET 0.000000 0.000000 0.100006
													}
												}
											}
										}
									}
									JOINT RightHandRing1
									{
										OFFSET 0.086761 2.267456 8.921707
										CHANNELS 6 Xposition Yposition Zposition Zrotation Yrotation Xrotation
										JOINT RightHandRing2
										{
											OFFSET 0.000000 0.000000 4.061096
											CHANNELS 6 Xposition Yposition Zposition Zrotation Yrotation Xrotation
											JOINT RightHandRing3
											{
												OFFSET 0.000000 0.000000 3.654984
												CHANNELS 6 Xposition Yposition Zposition Zrotation Yrotation Xrotation
												JOINT RightHandRing4
												{
													OFFSET 0.000000 0.000000 2.741241
													CHANNELS 6 Xposition Yposition Zposition Zrotation Yrotation Xrotation
													End Site
													{
														OFFSET 0.000000 0.000000 0.100006
													}
												}
											}
										}
									}
									JOINT RightHandPinky1
									{
										OFFSET -0.173492 4.467224 7.976990
										CHANNELS 6 Xposition Yposition Zposition Zrotation Yrotation Xrotation
										JOINT RightHandPinky2
										{
											OFFSET 0.000000 0.000000 3.350403
											CHANNELS 6 Xposition Yposition Zposition Zrotation Yrotation Xrotation
											JOINT RightHandPinky3
											{
												OFFSET 0.000000 0.000000 2.842758
												CHANNELS 6 Xposition Yposition Zposition Zrotation Yrotation Xrotation
												JOINT RightHandPinky4
												{
													OFFSET 0.000000 0.000000 2.639709
													CHANNELS 6 Xposition Yposition Zposition Zrotation Yrotation Xrotation
													End Site
													{
														OFFSET 0.000000 0.000000 0.100006
													}
												}
											}
										}
									}
									JOINT RightForeArmEnd
									{
										OFFSET 0.000000 0.000000 0.000000
										CHANNELS 6 Xposition Yposition Zposition Zrotation Yrotation Xrotation
										End Site
										{
											OFFSET 0.000000 0.000000 0.100006
										}
									}
								}
								JOINT RightArmEnd
								{
									OFFSET 0.000000 0.000000 0.000000
									CHANNELS 6 Xposition Yposition Zposition Zrotation Yrotation Xrotation
									End Site
									{
										OFFSET 0.000000 0.000000 0.100006
									}
								}
							}
						}
					}
					JOINT LeftShoulder
					{
						OFFSET 2.625397 0.000000 11.175217
						CHANNELS 6 Xposition Yposition Zposition Zrotation Yrotation Xrotation
						JOINT LeftArm
						{
							OFFSET 0.000000 0.000000 10.813629
							CHANNELS 6 Xposition Yposition Zposition Zrotation Yrotation Xrotation
							JOINT LeftForeArm
							{
								OFFSET 0.000000 0.000000 28.724777
								CHANNELS 6 Xposition Yposition Zposition Zrotation Yrotation Xrotation
								JOINT LeftHand
								{
									OFFSET 0.644379 0.328857 25.716171
									CHANNELS 6 Xposition Yposition Zposition Zrotation Yrotation Xrotation
									JOINT LeftHandThumb1
									{
										OFFSET 2.867310 -2.944275 3.959564
										CHANNELS 6 Xposition Yposition Zposition Zrotation Yrotation Xrotation
										JOINT LeftHandThumb2
										{
											OFFSET 0.000000 0.000000 3.350403
											CHANNELS 6 Xposition Yposition Zposition Zrotation Yrotation Xrotation
											JOINT LeftHandThumb3
											{
												OFFSET 0.000000 0.000000 3.756516
												CHANNELS 6 Xposition Yposition Zposition Zrotation Yrotation Xrotation
												JOINT LeftHandThumb4
												{
													OFFSET 0.000000 0.000000 3.100006
													CHANNELS 6 Xposition Yposition Zposition Zrotation Yrotation Xrotation
													End Site
													{
														OFFSET 0.000000 0.000000 0.100006
													}
												}
											}
										}
									}
									JOINT LeftHandIndex1
									{
										OFFSET 0.086761 -2.345276 10.030899
										CHANNELS 6 Xposition Yposition Zposition Zrotation Yrotation Xrotation
										JOINT LeftHandIndex2
										{
											OFFSET 0.000000 0.000000 4.061096
											CHANNELS 6 Xposition Yposition Zposition Zrotation Yrotation Xrotation
											JOINT LeftHandIndex3
											{
												OFFSET 0.000000 0.000000 3.248871
												CHANNELS 6 Xposition Yposition Zposition Zrotation Yrotation Xrotation
												JOINT LeftHandIndex4
												{
													OFFSET 0.000000 0.000000 2.639709
													CHANNELS 6 Xposition Yposition Zposition Zrotation Yrotation Xrotation
													End Site
													{
														OFFSET 0.000000 0.000000 0.100006
													}
												}
											}
										}
									}
									JOINT LeftHandMiddle1
									{
										OFFSET -0.104095 -0.006775 9.502945
										CHANNELS 6 Xposition Yposition Zposition Zrotation Yrotation Xrotation
										JOINT LeftHandMiddle2
										{
											OFFSET 0.000000 0.000000 4.568726
											CHANNELS 6 Xposition Yposition Zposition Zrotation Yrotation Xrotation
											JOINT LeftHandMiddle3
											{
												OFFSET 0.000000 0.000000 3.654984
												CHANNELS 6 Xposition Yposition Zposition Zrotation Yrotation Xrotation
												JOINT LeftHandMiddle4
												{
													OFFSET 0.000000 0.000000 2.741241
													CHANNELS 6 Xposition Yposition Zposition Zrotation Yrotation Xrotation
													End Site
													{
														OFFSET 0.000000 0.000000 0.100006
													}
												}
											}
										}
									}
									JOINT LeftHandRing1
									{
										OFFSET -0.086761 2.267456 8.921707
										CHANNELS 6 Xposition Yposition Zposition Zrotation Yrotation Xrotation
										JOINT LeftHandRing2
										{
											OFFSET 0.000000 0.000000 4.061096
											CHANNELS 6 Xposition Yposition Zposition Zrotation Yrotation Xrotation
											JOINT LeftHandRing3
											{
												OFFSET 0.000000 0.000000 3.654984
												CHANNELS 6 Xposition Yposition Zposition Zrotation Yrotation Xrotation
												JOINT LeftHandRing4
												{
													OFFSET 0.000000 0.000000 2.741241
													CHANNELS 6 Xposition Yposition Zposition Zrotation Yrotation Xrotation
													End Site
													{
														OFFSET 0.000000 0.000000 0.100006
													}
												}
											}
										}
									}
									JOINT LeftHandPinky1
									{
										OFFSET 0.173492 4.467224 7.976990
										CHANNELS 6 Xposition Yposition Zposition Zrotation Yrotation Xrotation
										JOINT LeftHandPinky2
										{
											OFFSET 0.000000 0.000000 3.350403
											CHANNELS 6 Xposition Yposition Zposition Zrotation Yrotation Xrotation
											JOINT LeftHandPinky3
											{
												OFFSET 0.000000 0.000000 2.842758
												CHANNELS 6 Xposition Yposition Zposition Zrotation Yrotation Xrotation
												JOINT LeftHandPinky4
												{
													OFFSET 0.000000 0.000000 2.639709
													CHANNELS 6 Xposition Yposition Zposition Zrotation Yrotation Xrotation
													End Site
													{
														OFFSET 0.000000 0.000000 0.100006
													}
												}
											}
										}
									}
									JOINT LeftForeArmEnd
									{
										OFFSET 0.000000 0.000000 0.000000
										CHANNELS 6 Xposition Yposition Zposition Zrotation Yrotation Xrotation
										End Site
										{
											OFFSET 0.000000 0.000000 0.100006
										}
									}
								}
								JOINT LeftArmEnd
								{
									OFFSET 0.000000 0.000000 0.000000
									CHANNELS 6 Xposition Yposition Zposition Zrotation Yrotation Xrotation
									End Site
									{
										OFFSET 0.000000 0.000000 0.100006
									}
								}
							}
						}
					}
				}
			}
		}
	}
	JOINT RightUpLeg
	{
		OFFSET -11.289948 0.000000 0.000000
		CHANNELS 6 Xposition Yposition Zposition Zrotation Yrotation Xrotation
		JOINT RightLeg
		{
			OFFSET 0.000000 0.000000 -38.200329
			CHANNELS 6 Xposition Yposition Zposition Zrotation Yrotation Xrotation
			JOINT RightFoot
			{
				OFFSET 0.000000 0.000000 -39.900856
				CHANNELS 6 Xposition Yposition Zposition Zrotation Yrotation Xrotation
				JOINT RightToeBase
				{
					OFFSET 0.000000 -15.261658 0.000001
					CHANNELS 6 Xposition Yposition Zposition Zrotation Yrotation Xrotation
					JOINT RightToeBaseEnd
					{
						OFFSET 0.000000 -7.370728 0.000001
						CHANNELS 6 Xposition Yposition Zposition Zrotation Yrotation Xrotation
						End Site
						{
							OFFSET 0.000000 0.000000 0.100000
						}
					}
				}
				JOINT RightLegEnd
				{
					OFFSET 0.000000 0.000000 0.000000
					CHANNELS 6 Xposition Yposition Zposition Zrotation Yrotation Xrotation
					End Site
					{
						OFFSET 0.000000 0.000000 0.100000
					}
				}
			}
			JOINT RightUpLegEnd
			{
				OFFSET 0.000000 0.000000 0.000000
				CHANNELS 6 Xposition Yposition Zposition Zrotation Yrotation Xrotation
				End Site
				{
					OFFSET 0.000000 0.000000 0.099998
				}
			}
		}
	}
	JOINT LeftUpLeg
	{
		OFFSET 11.315674 0.000000 0.000000
		CHANNELS 6 Xposition Yposition Zposition Zrotation Yrotation Xrotation
		JOINT LeftLeg
		{
			OFFSET 0.000000 0.000000 -38.200329
			CHANNELS 6 Xposition Yposition Zposition Zrotation Yrotation Xrotation
			JOINT LeftFoot
			{
				OFFSET 0.000000 0.000000 -39.900856
				CHANNELS 6 Xposition Yposition Zposition Zrotation Yrotation Xrotation
				JOINT LeftToeBase
				{
					OFFSET 0.000000 -15.261658 0.000001
					CHANNELS 6 Xposition Yposition Zposition Zrotation Yrotation Xrotation
					JOINT LeftToeBaseEnd
					{
						OFFSET 0.000000 -7.539978 0.000001
						CHANNELS 6 Xposition Yposition Zposition Zrotation Yrotation Xrotation
						End Site
						{
							OFFSET 0.000000 0.000000 0.100000
						}
					}
				}
				JOINT LeftLegEnd
				{
					OFFSET 0.000000 0.000000 0.000000
					CHANNELS 6 Xposition Yposition Zposition Zrotation Yrotation Xrotation
					End Site
					{
						OFFSET 0.000000 0.000000 0.100000
					}
				}
			}
			JOINT LeftUpLegEnd
			{
				OFFSET 0.000000 0.000000 0.000000
				CHANNELS 6 Xposition Yposition Zposition Zrotation Yrotation Xrotation
				End Site
				{
					OFFSET 0.000000 0.000000 0.099998
				}
			}
		}
	}
}
MOTION
Frames: 2
Frame Time: 0.016667
30.789124 -81.944702 87.336403 -15.227992 -2.054712 -12.211156 0.000014 2.080081 8.814243 0.524638 1.408201 7.294809 0.000002 -0.000015 8.844148 -0.187666 -1.456457 2.499591 -0.000010 0.000008 11.682272 1.323679 -1.211842 6.953810 -0.000033 0.000029 11.746688 0.533139 -1.046578 5.826654 -0.000006 -0.000025 17.658253 0.052940 13.100889 -0.465442 0.000010 0.000014 5.101512 -4.321693 2.477482 -5.375793 0.000015 0.000028 5.101542 0.038304 0.066329 -14.134189 0.000007 0.000005 11.655061 -0.000001 -0.000000 0.000000 -2.625406 -0.000009 11.175212 4.952956 -86.341535 0.218482 -0.000008 -0.000021 10.434719 330.506570 -76.148543 -340.545227 -0.000008 -0.000046 29.628450 25.494738 -0.405581 63.585188 0.000034 -0.000006 22.857590 4.081479 -16.684595 -28.558640 -2.867294 -2.944290 3.959549 32.047811 -14.886711 55.266165 -0.000013 -0.000023 3.350418 -7.472755 5.843846 -13.978239 -0.000010 0.000008 3.756502 -5.035407 4.254711 -9.617816 -0.000004 0.000012 3.147348 -0.000003 0.000003 0.000003 -0.086763 -2.345289 10.030900 9.255216 4.523777 -1.599833 -0.000013 -0.000024 4.061066 -0.536353 -0.142177 0.001344 0.000014 0.000006 3.248873 -0.049847 0.078922 -0.003192 0.000012 -0.000004 2.639728 0.000000 -0.000001 -0.000001 0.104113 -0.006779 9.502945 4.100335 3.561168 -2.723614 -0.000003 0.000013 4.568699 -0.510679 0.000065 -0.000089 0.000002 -0.000030 3.655002 -0.009832 0.000003 -0.001282 0.000003 -0.000065 2.741267 0.000001 -0.000001 0.000000 0.086760 2.267437 8.921687 -4.590650 -1.062232 -5.663317 -0.000015 -0.000005 4.061123 1.012353 -0.476643 0.026689 0.000001 -0.000009 3.654998 0.017899 -0.430694 0.027282 -0.000006 -0.000012 2.741244 0.000002 0.000000 0.000000 -0.173491 4.467201 7.976971 -13.763713 -6.619380 -7.667035 0.000011 -0.000005 3.350398 1.981462 -3.308615 0.642719 -0.000008 -0.000011 2.842739 -0.018628 -3.300635 0.643358 -0.000031 -0.000003 2.639704 -0.000000 0.000000 0.000001 -0.000008 -0.000001 -0.000014 -0.000001 0.000000 -0.000002 -0.000003 -0.000001 0.000010 -0.000000 0.000000 0.000001 2.625389 -0.000030 11.175206 -10.800636 84.339203 -0.298043 0.000017 -0.000015 10.813641 -286.350818 73.859603 -306.254098 -0.000019 -0.000004 28.724800 -26.559153 -0.736237 83.341893 0.644356 0.328873 25.716171 -22.888608 16.413416 -13.851839 2.867329 -2.944275 3.959549 -31.519814 18.507024 49.649495 0.000000 0.000031 3.350437 15.431441 -9.409871 -27.445858 -0.000004 0.000031 3.756512 10.228821 -7.339066 -18.751957 -0.000007 0.000011 3.100025 -0.000000 -0.000001 -0.000004 0.086784 -2.345268 10.030851 13.879140 24.181933 2.423831 0.000001 0.000009 4.061104 -0.128013 17.086362 2.475908 -0.000006 0.000007 3.248915 0.371997 17.086360 2.475910 0.000012 -0.000011 2.639730 0.000000 -0.000000 0.000001 -0.104080 -0.006788 9.502951 7.859434 22.067043 -0.458680 0.000005 0.000011 4.568756 -0.391775 15.625350 0.837954 -0.000007 -0.000010 3.655012 0.106845 15.625205 0.837615 -0.000012 0.000012 2.741249 -0.000003 -0.000000 -0.000001 -0.086736 2.267450 8.921726 -0.951203 20.542040 -4.644535 -0.000010 0.000002 4.061108 0.884358 14.795580 -0.924491 0.000012 0.000019 3.654994 -0.114204 14.795590 -0.924114 -0.000005 -0.000008 2.741262 0.000002 -0.000000 -0.000001 0.173492 4.467241 7.976990 -10.251770 16.447442 -8.518795 0.000000 -0.000007 3.350372 1.728914 12.512548 -2.472382 -0.000002 -0.000007 2.842781 -0.271084 12.512532 -2.472381 -0.000009 -0.000056 2.639724 -0.000001 0.000000 -0.000000 0.000010 -0.000013 0.000025 0.000000 0.000000 0.000001 -0.000013 0.000078 0.000014 -0.000003 0.000000 -0.000002 -11.289967 -0.000027 -0.000011 11.660467 5.362043 5.315853 -0.000021 0.000027 -38.200306 -0.819518 0.397805 25.890696 -0.000012 0.000015 -39.900856 -6.420244 -2.424362 10.686974 -0.000010 -15.261665 0.000002 1.106673 0.947403 -19.490235 0.000002 -7.370671 -0.000001 0.000001 -0.000000 -0.000000 0.000002 0.000062 0.000000 -0.000000 0.000000 -0.000003 0.000003 -0.000001 -0.000003 0.000000 -0.000000 0.000002 11.315626 0.000032 0.000004 13.435689 -10.083686 12.352516 -0.000018 0.000082 -38.200314 2.080385 -0.492773 13.313651 0.000007 -0.000071 -39.900867 16.586828 11.242482 19.707427 0.000002 -15.261627 0.000019 -2.059007 -2.646947 -18.445805 -0.000003 -7.539922 -0.000002 0.000001 -0.000000 -0.000001 0.000013 -0.000011 -0.000001 0.000002 -0.000000 0.000002 0.000000 -0.000060 -0.000007 -0.000000 0.000001 -0.000001 
30.495575 -81.718506 87.448257 -15.870211 -2.250601 -11.743062 -0.000008 2.080071 8.814249 0.545393 1.424862 7.123389 0.000002 0.000002 8.844147 -0.157292 -1.406152 2.489041 -0.000041 0.000086 11.682280 1.500589 -1.051520 6.646148 0.000004 0.000023 11.746702 0.583986 -0.834133 5.676778 0.000002 -0.000000 17.658298 -0.293330 13.492646 -0.161044 0.000001 -0.000018 5.101496 -4.781110 2.563015 -5.095773 -0.000003 -0.000052 5.101530 0.032912 0.010517 -14.040496 -0.000011 -0.000001 11.655073 -0.000001 -0.000001 0.000000 -2.625427 -0.000016 11.175227 4.967382 -86.382181 0.210696 -0.000023 -0.000013 10.434711 328.289873 -76.697997 -338.608021 0.000015 0.000000 29.628468 25.222104 -0.357528 63.528430 -0.000011 -0.000019 22.857613 5.706705 -17.486275 -28.901532 -2.867310 -2.944305 3.959541 32.008162 -15.052134 54.995362 0.000011 -0.000027 3.350395 -7.829712 6.054737 -14.604983 -0.000006 -0.000021 3.756517 -5.270511 4.419855 -10.045173 -0.000008 0.000003 3.147343 -0.000002 0.000003 0.000002 -0.086747 -2.345294 10.030893 9.186814 4.164150 -2.064845 0.000002 0.000007 4.061084 -0.536980 -0.000191 0.000014 0.000041 -0.000018 3.248859 -0.052039 0.000009 -0.003156 0.000001 0.000002 2.639725 0.000001 0.000000 -0.000002 0.104099 -0.006792 9.502951 4.077050 3.464102 -3.133812 -0.000002 -0.000022 4.568727 -0.511251 0.000136 -0.000095 -0.000001 -0.000068 3.655006 -0.010370 0.000005 -0.001280 0.000004 0.000001 2.741244 -0.000001 0.000000 0.000002 0.086765 2.267483 8.921716 -4.501836 -0.645776 -6.207441 -0.000005 -0.000025 4.061090 1.013582 -0.116433 0.006818 -0.000006 -0.000023 3.654970 0.020267 -0.111101 0.007307 -0.000003 -0.000061 2.741260 0.000000 -0.000000 0.000000 -0.173492 4.467194 7.976986 -13.529703 -5.703789 -8.462361 0.000005 0.000029 3.350416 1.988903 -2.556272 0.497222 0.000001 -0.000004 2.842795 -0.011094 -2.556244 0.497223 -0.000002 0.000001 2.639721 0.000000 -0.000000 -0.000000 0.000003 0.000012 -0.000014 -0.000001 -0.000001 0.000000 -0.000015 -0.000017 0.000002 0.000002 0.000001 -0.000002 2.625408 -0.000018 11.175240 -10.762120 84.274945 -0.297409 0.000031 0.000011 10.813625 -285.537014 73.666486 -305.500373 0.000006 0.000011 28.724758 -26.064955 -0.819788 83.862306 0.644341 0.328819 25.716179 -22.538506 18.049972 -13.100532 2.867325 -2.944290 3.959610 -31.519786 18.507065 49.649567 -0.000011 0.000023 3.350422 15.431445 -9.409838 -27.445969 0.000011 0.000019 3.756504 10.228794 -7.339125 -18.751909 -0.000001 -0.000004 3.100018 -0.000001 -0.000000 -0.000000 0.086754 -2.345272 10.030897 13.865629 24.084794 2.824359 0.000008 -0.000016 4.061111 -0.122923 17.060438 2.473770 0.000002 -0.000009 3.248898 0.376737 17.060508 2.473675 0.000015 -0.000004 2.639736 -0.000000 -0.000001 -0.000002 -0.104103 -0.006783 9.502948 7.861061 22.058174 -0.203740 0.000002 -0.000044 4.568703 -0.390969 15.630036 0.835789 -0.000006 0.000002 3.655004 0.108176 15.630055 0.840475 -0.000002 -0.000024 2.741253 0.000003 -0.000001 -0.000000 -0.086749 2.267471 8.921696 -0.933014 20.657731 -4.571163 0.000013 0.000017 4.061123 0.883127 14.873464 -0.929559 -0.000005 -0.000008 3.654985 -0.116198 14.873498 -0.926830 -0.000007 -0.000002 2.741267 0.000000 0.000000 -0.000001 0.173500 4.467201 7.976974 -10.219398 16.647994 -8.671729 0.000000 -0.000059 3.350389 1.724581 12.672621 -2.504477 -0.000002 0.000007 2.842724 -0.275847 12.672639 -2.504555 0.000007 -0.000022 2.639718 0.000002 0.000000 -0.000002 0.000014 0.000016 0.000017 -0.000003 -0.000000 -0.000003 -0.000023 0.000024 -0.000002 0.000005 -0.000000 0.000003 -11.289962 -0.000073 0.000011 12.174763 5.324648 4.627406 0.000004 0.000020 -38.200314 -0.796607 0.386913 25.904041 0.000004 0.000038 -39.900852 -6.413086 -2.168317 10.942977 0.000000 -15.261657 -0.000013 1.092196 0.918974 -19.586679 -0.000002 -7.370669 -0.000000 0.000000 -0.000001 -0.000000 0.000008 0.000067 0.000002 -0.000001 -0.000001 -0.000004 -0.000001 -0.000002 0.000001 0.000001 -0.000000 -0.000001 11.315681 0.000036 0.000000 13.674318 -9.999556 12.269747 -0.000031 0.000063 -38.200310 2.177994 -0.484089 12.525063 -0.000022 -0.000008 -39.900867 17.130902 11.317345 20.843702 0.000002 -15.261656 0.000001 -2.058106 -2.728197 -18.896488 0.000001 -7.539904 0.000001 -0.000002 0.000000 -0.000000 -0.000013 0.000004 0.000002 -0.000001 0.000000 0.000002 0.000000 0.000064 0.000001 -0.000000 0.000000 0.000000 
